<!DOCTYPE svg PUBLIC "-//W3C//DTD SVG 1.1//EN" "http://www.w3.org/Graphics/SVG/1.1/DTD/svg11.dtd">
<!-- Uploaded to: SVG Repo, www.svgrepo.com, Transformed by: SVG Repo Mixer Tools -->
<svg width="800px" height="800px" viewBox="0 -575.5 2175 2175" fill="#ffffff" class="icon" version="1.1" xmlns="http://www.w3.org/2000/svg" stroke="#ffffff">
<g id="SVGRepo_bgCarrier" stroke-width="0"/>
<g id="SVGRepo_tracerCarrier" stroke-linecap="round" stroke-linejoin="round"/>
<g id="SVGRepo_iconCarrier">
<path d="M794.237409 315.518971L686.973759 424.659615c55.849818 124.031595 174.335431 262.186145 311.806983 308.564993l92.756698-92.501698s219.903283 38.357875 269.311121 62.463796c42.87986 20.735932 57.002814 66.773782 50.303836 123.605597-7.252976 61.097801-87.209716 195.711362-231.380245 197.204357-144.12753 1.449995-356.393838-107.135651-508.457342-267.391128-152.063504-160.169478-287.657062-363.305815-265.983132-535.763252C427.049607 48.339842 577.278117 17.535943 614.867994 14.762952c38.015876-2.773991 68.181778 8.361973 91.093703 36.73588C735.442601 88.063713 794.237409 315.518971 794.237409 315.518971M672.424807 87.167716c-17.877942-23.380924-48.597841-27.306911-79.317742-20.052935-27.305911 6.399979-126.761587 47.657845-140.84154 158.164484-15.615949 122.879599 76.031752 330.835921 240.468215 489.939402 164.479464 159.103481 322.942947 251.946178 459.134503 263.082142 136.191556 11.135964 202.623339-108.799645 212.351307-144.852527 9.684968-36.010883 1.663995-72.362764-17.919941-86.869717-24.916919-18.47394-239.14622-56.788815-239.14622-56.788815l-97.193683 95.786688c-159.829479-52.01083-310.313988-197.546356-374.356779-375.422776L741.757581 303.231011c-0.043 0-51.412832-192.724371-69.332774-216.063295" fill=""/>
</g>
</svg>